<?xml version="1.0" standalone="no"?>
<!DOCTYPE svg PUBLIC "-//W3C//DTD SVG 20010904//EN"
 "http://www.w3.org/TR/2001/REC-SVG-20010904/DTD/svg10.dtd">
<svg version="1.0" xmlns="http://www.w3.org/2000/svg"
 width="554.000000pt" height="554.000000pt" viewBox="0 0 554.000000 554.000000"
 preserveAspectRatio="xMidYMid meet">
<metadata>
Created by potrace 1.15, written by Peter Selinger 2001-2017
</metadata>
<g transform="translate(0.000000,554.000000) scale(0.100000,-0.100000)"
fill="#FFFFFF" stroke="none">
<path d="M2658 5525 c-176 -38 -327 -177 -379 -347 l-21 -68 -349 0 -349 0 0
-85 0 -85 1210 0 1210 0 0 85 0 85 -352 2 -353 3 -3 25 c-2 14 -21 61 -42 105
-104 217 -338 332 -572 280z m254 -182 c83 -37 152 -114 188 -208 l10 -25
-340 0 -339 0 16 45 c27 82 124 171 216 201 61 20 190 13 249 -13z"/>
<path d="M1560 4330 l0 -520 -175 0 -175 0 0 215 0 215 -85 0 -85 0 0 -215 0
-215 -520 0 -520 0 0 -1905 0 -1905 85 0 85 0 0 1820 0 1820 695 0 695 0 0
-1820 0 -1820 85 0 85 0 0 2340 0 2340 1040 0 1040 0 0 -2340 0 -2340 85 0 85
0 0 1820 0 1820 695 0 695 0 0 -1820 0 -1820 85 0 85 0 0 1905 0 1905 -520 0
-520 0 0 215 0 215 -85 0 -85 0 0 -215 0 -215 -175 0 -175 0 0 520 0 520
-1210 0 -1210 0 0 -520z"/>
<path d="M1040 4415 l0 -85 85 0 85 0 0 85 0 85 -85 0 -85 0 0 -85z"/>
<path d="M1820 4415 l0 -85 950 0 950 0 0 85 0 85 -950 0 -950 0 0 -85z"/>
<path d="M4330 4415 l0 -85 85 0 85 0 0 85 0 85 -85 0 -85 0 0 -85z"/>
<path d="M1910 3985 l0 -175 80 0 80 0 0 175 0 175 -80 0 -80 0 0 -175z"/>
<path d="M2430 3985 l0 -175 80 0 80 0 0 175 0 175 -80 0 -80 0 0 -175z"/>
<path d="M2950 3985 l0 -175 80 0 80 0 0 175 0 175 -80 0 -80 0 0 -175z"/>
<path d="M3470 3985 l0 -175 80 0 80 0 0 175 0 175 -80 0 -80 0 0 -175z"/>
<path d="M1910 3380 l0 -170 80 0 80 0 0 170 0 170 -80 0 -80 0 0 -170z"/>
<path d="M2430 3380 l0 -170 80 0 80 0 0 170 0 170 -80 0 -80 0 0 -170z"/>
<path d="M2950 3380 l0 -170 80 0 80 0 0 170 0 170 -80 0 -80 0 0 -170z"/>
<path d="M3470 3380 l0 -170 80 0 80 0 0 170 0 170 -80 0 -80 0 0 -170z"/>
<path d="M260 3375 l0 -85 605 0 605 0 0 85 0 85 -605 0 -605 0 0 -85z"/>
<path d="M4070 3375 l0 -85 605 0 605 0 0 85 0 85 -605 0 -605 0 0 -85z"/>
<path d="M350 2860 l0 -170 85 0 85 0 -2 168 -3 167 -82 3 -83 3 0 -171z"/>
<path d="M780 2860 l0 -170 85 0 85 0 0 170 0 170 -85 0 -85 0 0 -170z"/>
<path d="M1210 2860 l0 -170 85 0 85 0 0 170 0 170 -85 0 -85 0 0 -170z"/>
<path d="M4160 2860 l0 -170 85 0 85 0 0 170 0 170 -85 0 -85 0 0 -170z"/>
<path d="M4590 2860 l0 -170 85 0 85 0 0 170 0 170 -85 0 -85 0 0 -170z"/>
<path d="M5020 2860 l0 -170 85 0 85 0 0 170 0 170 -85 0 -85 0 0 -170z"/>
<path d="M1910 2770 l0 -170 80 0 80 0 0 170 0 170 -80 0 -80 0 0 -170z"/>
<path d="M2430 2770 l0 -170 80 0 80 0 0 170 0 170 -80 0 -80 0 0 -170z"/>
<path d="M2950 2770 l0 -170 80 0 80 0 0 170 0 170 -80 0 -80 0 0 -170z"/>
<path d="M3470 2770 l0 -170 80 0 80 0 0 170 0 170 -80 0 -80 0 0 -170z"/>
<path d="M350 2250 l0 -170 85 0 85 0 0 170 0 170 -85 0 -85 0 0 -170z"/>
<path d="M780 2250 l0 -170 85 0 85 0 0 170 0 170 -85 0 -85 0 0 -170z"/>
<path d="M1210 2250 l0 -170 85 0 85 0 0 170 0 170 -85 0 -85 0 0 -170z"/>
<path d="M4160 2250 l0 -170 85 0 85 0 0 170 0 170 -85 0 -85 0 0 -170z"/>
<path d="M4590 2250 l0 -170 85 0 85 0 0 170 0 170 -85 0 -85 0 0 -170z"/>
<path d="M5020 2250 l0 -170 85 0 85 0 0 170 0 170 -85 0 -85 0 0 -170z"/>
<path d="M1910 2165 l0 -175 80 0 80 0 0 175 0 175 -80 0 -80 0 0 -175z"/>
<path d="M2430 2165 l0 -175 80 0 80 0 0 175 0 175 -80 0 -80 0 0 -175z"/>
<path d="M2950 2165 l0 -175 80 0 80 0 0 175 0 175 -80 0 -80 0 0 -175z"/>
<path d="M3470 2165 l0 -175 80 0 80 0 0 175 0 175 -80 0 -80 0 0 -175z"/>
<path d="M350 1645 l0 -176 83 3 82 3 0 170 0 170 -82 3 -83 3 0 -176z"/>
<path d="M780 1645 l0 -175 85 0 85 0 0 175 0 175 -85 0 -85 0 0 -175z"/>
<path d="M1214 1807 c-2 -7 -3 -85 -2 -172 l3 -160 83 -3 82 -3 0 176 0 175
-80 0 c-57 0 -82 -4 -86 -13z"/>
<path d="M4160 1645 l0 -176 83 3 82 3 0 170 0 170 -82 3 -83 3 0 -176z"/>
<path d="M4590 1645 l0 -175 85 0 85 0 0 175 0 175 -85 0 -85 0 0 -175z"/>
<path d="M5024 1807 c-2 -7 -3 -85 -2 -172 l3 -160 83 -3 82 -3 0 176 0 175
-80 0 c-57 0 -82 -4 -86 -13z"/>
<path d="M1910 1560 l0 -170 80 0 80 0 0 170 0 170 -80 0 -80 0 0 -170z"/>
<path d="M2430 1560 l0 -170 80 0 80 0 0 170 0 170 -80 0 -80 0 0 -170z"/>
<path d="M2950 1560 l0 -170 80 0 80 0 0 170 0 170 -80 0 -80 0 0 -170z"/>
<path d="M3470 1560 l0 -170 80 0 80 0 0 170 0 170 -80 0 -80 0 0 -170z"/>
<path d="M350 1040 l0 -170 85 0 85 0 0 170 0 170 -85 0 -85 0 0 -170z"/>
<path d="M780 1040 l0 -170 85 0 85 0 0 170 0 170 -85 0 -85 0 0 -170z"/>
<path d="M1210 1040 l0 -170 85 0 85 0 0 170 0 170 -85 0 -85 0 0 -170z"/>
<path d="M4160 1040 l0 -170 85 0 85 0 0 170 0 170 -85 0 -85 0 0 -170z"/>
<path d="M4590 1040 l0 -170 85 0 85 0 0 170 0 170 -85 0 -85 0 0 -170z"/>
<path d="M5020 1040 l0 -170 85 0 85 0 0 170 0 170 -85 0 -85 0 0 -170z"/>
<path d="M1910 955 l0 -175 80 0 80 0 0 175 0 175 -80 0 -80 0 0 -175z"/>
<path d="M2430 955 l0 -175 80 0 80 0 0 175 0 175 -80 0 -80 0 0 -175z"/>
<path d="M2950 955 l0 -175 80 0 80 0 0 175 0 175 -80 0 -80 0 0 -175z"/>
<path d="M3470 955 l0 -175 80 0 80 0 0 175 0 175 -80 0 -80 0 0 -175z"/>
<path d="M350 435 l0 -176 83 3 82 3 0 170 0 170 -82 3 -83 3 0 -176z"/>
<path d="M787 603 c-4 -3 -7 -82 -7 -175 l0 -168 85 0 85 0 0 175 0 175 -78 0
c-43 0 -82 -3 -85 -7z"/>
<path d="M1214 597 c-2 -7 -3 -85 -2 -172 l3 -160 83 -3 82 -3 0 176 0 175
-80 0 c-57 0 -82 -4 -86 -13z"/>
<path d="M4160 435 l0 -176 83 3 82 3 0 170 0 170 -82 3 -83 3 0 -176z"/>
<path d="M4590 435 l0 -175 85 0 85 0 -2 173 -3 172 -82 3 -83 3 0 -176z"/>
<path d="M5024 597 c-2 -7 -3 -85 -2 -172 l3 -160 83 -3 82 -3 0 176 0 175
-80 0 c-57 0 -82 -4 -86 -13z"/>
<path d="M1910 345 l0 -175 80 0 80 0 0 175 0 175 -80 0 -80 0 0 -175z"/>
<path d="M2430 345 l0 -175 80 0 80 0 0 175 0 175 -80 0 -80 0 0 -175z"/>
<path d="M2950 345 l0 -175 80 0 80 0 0 175 0 175 -80 0 -80 0 0 -175z"/>
<path d="M3470 345 l0 -175 80 0 80 0 0 175 0 175 -80 0 -80 0 0 -175z"/>
</g>
</svg>
