<?xml version="1.0" standalone="no"?>
<!DOCTYPE svg PUBLIC "-//W3C//DTD SVG 20010904//EN"
 "http://www.w3.org/TR/2001/REC-SVG-20010904/DTD/svg10.dtd">
<svg version="1.0" xmlns="http://www.w3.org/2000/svg"
 width="1024.000000pt" height="1024.000000pt" viewBox="0 0 1024.000000 1024.000000"
 preserveAspectRatio="xMidYMid meet">
<metadata>
Created by potrace 1.15, written by Peter Selinger 2001-2017
</metadata>
<g transform="translate(0.000000,1024.000000) scale(0.100000,-0.100000)"
fill="#FFFFFF" stroke="none">
<path d="M2679 8216 c-371 -54 -691 -225 -938 -502 -126 -142 -245 -347 -305
-524 -55 -165 -70 -270 -70 -480 0 -211 15 -314 71 -479 119 -354 384 -672
706 -848 434 -238 936 -253 1386 -42 378 177 682 530 801 931 148 497 39 1017
-298 1422 -213 255 -556 453 -887 511 -129 22 -349 27 -466 11z m123 -667 c45
-23 95 -83 108 -129 6 -19 10 -177 10 -352 l0 -317 258 -3 259 -3 48 -30 c95
-59 128 -187 74 -286 -32 -59 -103 -106 -172 -114 -28 -4 -207 -5 -397 -3
-334 3 -346 4 -387 25 -51 27 -96 82 -112 132 -7 26 -11 178 -11 482 l0 444
24 50 c34 74 80 108 171 128 30 7 86 -4 127 -24z"/>
<path d="M4833 6708 c-2 -324 -69 -603 -210 -881 -286 -561 -792 -933 -1428
-1050 -119 -22 -129 -22 -1230 -22 l-1110 0 -49 28 -49 27 -37 -39 c-65 -68
-85 -122 -85 -231 0 -86 3 -100 29 -148 37 -66 92 -116 165 -151 l56 -26 567
-3 567 -3 3 -502 3 -502 37 -78 c72 -150 202 -246 365 -268 43 -5 156 -9 251
-7 l173 3 33 82 c44 111 89 181 168 267 159 173 374 266 613 267 223 0 418
-77 577 -229 106 -101 187 -228 223 -347 l12 -40 874 0 874 0 0 1890 c0 1773
-1 1892 -17 1928 -28 62 -73 111 -130 143 l-53 29 -595 3 -596 3 -1 -143z"/>
<path d="M6670 6302 l0 -330 388 -4 387 -4 76 -26 c99 -35 183 -85 244 -145
44 -43 236 -276 686 -833 65 -80 132 -162 151 -183 l33 -38 421 3 422 3 -107
131 c-58 72 -162 201 -231 285 -299 369 -649 801 -719 889 -260 325 -486 475
-826 553 -81 18 -133 20 -507 24 l-418 5 0 -330z"/>
<path d="M240 6261 c-87 -27 -174 -104 -213 -189 -30 -65 -30 -197 0 -264 30
-66 95 -133 162 -165 l56 -28 503 -3 c276 -2 502 -1 502 2 0 2 -19 35 -42 72
-92 153 -165 318 -214 487 l-28 97 -350 -1 c-193 0 -362 -4 -376 -8z"/>
<path d="M7274 5460 c-76 -25 -148 -86 -189 -162 l-30 -53 -3 -252 -3 -253
331 0 331 0 -3 243 c-3 237 -4 243 -29 297 -37 79 -81 125 -154 161 -84 41
-165 47 -251 19z"/>
<path d="M6450 3630 l0 -670 880 0 880 0 21 43 c116 228 320 389 567 448 73
18 109 20 222 17 118 -4 147 -9 228 -37 52 -17 115 -43 140 -58 143 -81 274
-213 343 -347 38 -73 41 -75 136 -57 122 24 261 128 317 238 51 102 56 143 56
463 0 327 -5 363 -62 452 -40 63 -89 105 -168 142 l-65 31 -1747 3 -1748 2 0
-670z"/>
<path d="M3545 3243 c-186 -41 -348 -165 -429 -327 -48 -95 -66 -172 -66 -281
0 -113 20 -198 68 -289 126 -241 401 -374 663 -322 226 46 405 202 475 418 23
70 27 101 27 193 0 94 -4 122 -27 190 -55 161 -171 293 -319 364 -45 22 -106
44 -135 50 -51 11 -216 13 -257 4z"/>
<path d="M8830 3234 c-275 -74 -460 -316 -460 -600 0 -177 57 -314 184 -439
85 -84 157 -127 272 -161 89 -27 249 -25 339 3 197 63 355 221 418 418 32 101
31 262 -1 360 -35 105 -77 172 -161 256 -81 81 -175 136 -281 164 -71 19 -238
18 -310 -1z"/>
</g>
</svg>
