<?xml version="1.0" standalone="no"?>
<!DOCTYPE svg PUBLIC "-//W3C//DTD SVG 20010904//EN"
 "http://www.w3.org/TR/2001/REC-SVG-20010904/DTD/svg10.dtd">
<svg version="1.0" xmlns="http://www.w3.org/2000/svg"
 width="512.000000pt" height="512.000000pt" viewBox="0 0 512.000000 512.000000"
 preserveAspectRatio="xMidYMid meet">
<metadata>
Created by potrace 1.15, written by Peter Selinger 2001-2017
</metadata>
<g transform="translate(0.000000,512.000000) scale(0.100000,-0.100000)"
fill="#FFFFFF" stroke="none">
<path d="M2320 4674 c-228 -30 -448 -98 -665 -204 -647 -315 -1084 -910 -1201
-1635 -25 -152 -25 -476 -1 -633 148 -943 852 -1665 1787 -1833 147 -26 443
-36 590 -20 339 38 680 157 950 332 385 249 687 615 853 1034 52 129 107 329
107 384 0 26 4 51 9 57 34 34 45 468 17 659 -36 239 -100 445 -206 660 -329
668 -975 1123 -1712 1204 -132 15 -400 12 -528 -5z m530 -135 c599 -74 1122
-398 1461 -904 130 -195 244 -469 294 -712 142 -682 -85 -1403 -593 -1883
-299 -284 -649 -460 -1067 -536 -118 -22 -434 -30 -562 -15 -367 43 -709 180
-1002 399 -98 74 -276 246 -354 342 -557 690 -609 1663 -127 2395 327 496 841
825 1420 909 115 17 414 20 530 5z"/>
<path d="M2440 4430 c-907 -85 -1628 -785 -1740 -1690 -13 -109 -13 -341 0
-450 58 -464 283 -897 625 -1202 327 -292 711 -455 1150 -488 713 -54 1407
310 1785 935 252 417 333 952 216 1430 -152 618 -597 1122 -1192 1348 -254 97
-579 141 -844 117z m331 -140 c221 -22 409 -74 609 -171 620 -299 1010 -918
1010 -1604 0 -1104 -996 -1942 -2085 -1755 -274 47 -506 146 -750 318 -109 77
-315 286 -397 402 -137 192 -246 444 -300 690 -20 93 -22 132 -22 345 0 213 2
252 22 345 54 245 164 500 297 685 373 520 992 806 1616 745z"/>
<path d="M2100 3126 l0 -84 163 -4 c139 -4 170 -8 221 -27 87 -34 148 -94 170
-168 l7 -23 -280 0 -281 0 0 -60 0 -60 285 0 285 0 -6 -27 c-3 -16 -17 -52
-31 -81 -57 -120 -207 -181 -450 -182 l-83 0 0 -78 0 -77 91 -100 c77 -84 329
-375 484 -559 l40 -47 118 3 117 3 -170 205 c-94 113 -221 261 -283 328 -62
68 -122 136 -135 152 l-23 28 58 7 c257 30 434 169 475 371 l11 54 133 0 134
0 0 60 0 60 -134 0 -134 0 -11 46 c-16 64 -54 135 -94 178 l-34 36 203 0 204
0 0 65 0 65 -525 0 -525 0 0 -84z"/>
</g>
</svg>
