<?xml version="1.0" standalone="no"?>
<!DOCTYPE svg PUBLIC "-//W3C//DTD SVG 20010904//EN"
 "http://www.w3.org/TR/2001/REC-SVG-20010904/DTD/svg10.dtd">
<svg version="1.0" xmlns="http://www.w3.org/2000/svg"
 width="512.000000pt" height="413.000000pt" viewBox="0 0 512.000000 413.000000"
 preserveAspectRatio="xMidYMid meet">
<metadata>
Created by potrace 1.15, written by Peter Selinger 2001-2017
</metadata>
<g transform="translate(0.000000,413.000000) scale(0.100000,-0.100000)"
fill="#FFFFFF" stroke="none">
<path d="M0 4025 l0 -105 30 0 30 0 0 -1900 c0 -1863 0 -1900 19 -1900 17 0
19 7 18 68 -1 64 3 76 81 246 l82 178 0 407 0 406 -66 152 c-81 187 -81 173 4
487 l62 228 0 814 0 814 124 0 125 0 103 -54 c192 -102 419 -191 437 -173 22
22 9 33 -84 66 -53 19 -152 62 -222 95 l-126 61 2 101 2 101 -122 6 c-67 4
-207 7 -311 7 l-188 0 0 -105z"/>
<path d="M4583 4123 l-83 -4 0 -72 0 -73 -57 -21 c-32 -12 -95 -35 -140 -52
l-83 -30 -15 29 c-17 33 -32 37 -59 17 -15 -11 -16 -17 -5 -40 7 -15 10 -29 8
-31 -2 -3 -78 -27 -169 -55 l-165 -51 -17 22 c-10 13 -23 35 -29 51 -13 30
-26 34 -54 13 -19 -14 -19 -15 0 -53 11 -21 21 -41 23 -45 5 -9 -45 -24 -211
-62 l-147 -33 -7 26 c-3 14 -10 32 -16 39 -6 7 -7 35 -3 67 7 58 4 61 -41 49
-19 -5 -23 -16 -29 -65 -5 -49 -10 -60 -28 -64 -70 -17 -461 -83 -467 -79 -4
2 -22 29 -39 59 -17 30 -33 55 -35 55 -10 0 -55 -24 -55 -29 0 -3 11 -24 25
-46 31 -51 31 -65 0 -65 -20 0 -25 -5 -25 -23 0 -23 -2 -24 -127 -30 -71 -4
-159 -7 -198 -7 l-70 0 25 -25 25 -24 175 7 c96 5 176 8 177 7 1 -1 18 -111
38 -246 27 -186 40 -246 52 -254 165 -102 292 -417 377 -935 l32 -195 70 -24
c88 -31 245 -34 344 -8 36 10 67 21 71 25 3 4 -32 297 -78 652 -71 555 -90
675 -133 864 -28 121 -49 220 -48 221 2 1 87 22 189 46 172 42 187 44 197 28
12 -19 6 -29 -19 -29 -43 0 -100 -164 -114 -331 l-7 -76 58 -21 c100 -36 152
-46 180 -34 13 7 24 20 24 29 0 41 23 95 61 144 l41 51 -38 135 -39 135 -33
-4 c-25 -3 -36 1 -43 15 -6 10 -9 20 -7 22 4 4 294 96 323 102 16 3 25 -4 38
-31 17 -36 16 -36 -8 -42 -50 -12 -98 -140 -115 -304 -8 -81 -7 -97 6 -106 30
-23 151 -55 195 -52 43 3 44 4 52 43 13 59 32 98 66 138 17 19 31 43 30 53 0
11 -17 73 -37 139 l-37 120 -32 -3 c-28 -3 -35 2 -53 30 -11 18 -19 37 -17 41
1 5 58 30 125 55 l122 47 180 -3 180 -3 0 -1899 0 -1900 100 0 100 0 0 1900 0
1900 30 0 30 0 0 105 0 105 -227 -2 c-126 -1 -265 -4 -310 -5z"/>
<path d="M1228 3873 c-40 -10 -6 -92 51 -124 59 -33 86 -80 85 -149 0 -30 -7
-68 -15 -83 -14 -26 -13 -32 20 -99 33 -66 35 -77 35 -162 -1 -58 -7 -107 -18
-136 -39 -106 -132 -201 -233 -240 -49 -18 -45 -32 10 -32 28 -1 395 65 440
78 10 3 115 135 233 294 184 247 221 291 257 309 24 12 49 21 56 21 24 0 -8
28 -45 40 -19 6 -34 16 -34 21 0 5 11 32 25 59 14 27 25 52 25 54 0 3 -13 12
-28 20 l-28 15 -32 -65 -32 -64 -63 24 -63 24 -13 -59 c-6 -32 -16 -61 -21
-64 -22 -14 -409 57 -422 78 -4 6 -5 35 -1 64 l6 52 -51 -6 c-39 -4 -53 -2
-56 8 -47 132 -47 133 -88 122z m415 -342 c151 -25 158 -27 139 -44 -33 -30
-109 -50 -164 -44 -59 7 -128 45 -157 86 -27 37 -26 44 2 35 12 -4 93 -19 180
-33z"/>
<path d="M1144 3716 c-17 -8 -39 -25 -48 -37 -16 -23 -15 -24 6 -33 78 -29
127 -55 160 -84 35 -32 37 -32 47 -13 30 55 -4 141 -64 167 -42 17 -61 17
-101 0z"/>
<path d="M893 3592 c-101 -36 -167 -96 -212 -192 -22 -47 -26 -69 -26 -150 0
-89 2 -99 34 -158 39 -72 88 -120 163 -159 47 -25 64 -28 148 -28 82 0 103 4
151 26 79 37 133 90 171 167 30 60 33 75 33 157 0 77 -4 98 -27 147 -34 72
-98 137 -172 173 -77 37 -186 44 -263 17z"/>
<path d="M2109 3485 c-15 -8 -125 -146 -246 -308 l-220 -293 -224 -42 c-123
-23 -235 -42 -249 -42 -47 0 -324 80 -369 107 -25 14 -64 46 -88 71 l-43 44
-93 -55 c-51 -30 -98 -66 -105 -79 -21 -40 -292 -1080 -292 -1121 0 -28 41
-133 151 -386 83 -190 154 -354 156 -363 3 -9 -73 -185 -168 -390 -157 -339
-173 -378 -174 -428 0 -136 119 -227 250 -190 83 23 96 44 310 506 242 520
233 471 131 698 -36 82 -65 151 -63 153 4 3 320 -343 359 -392 14 -18 18 -74
28 -411 11 -367 13 -392 33 -433 34 -70 85 -104 161 -109 49 -3 71 0 104 17
47 24 86 71 100 121 15 56 -13 909 -31 953 -8 19 -123 154 -255 299 l-240 265
115 434 c63 239 118 437 121 440 4 4 111 26 237 49 127 24 245 49 262 56 25
10 85 83 266 326 129 172 239 323 245 335 16 28 15 92 -2 121 -30 55 -111 78
-167 47z"/>
<path d="M2336 3336 c-6 -29 -79 -139 -168 -252 -6 -8 3 -19 27 -34 l35 -22
113 108 c61 59 113 110 115 113 1 4 -24 33 -57 65 l-58 58 -7 -36z"/>
<path d="M1930 2763 c-47 -63 -98 -124 -115 -136 -22 -16 -92 -33 -270 -67
l-240 -46 -13 -38 c-6 -21 -15 -54 -18 -75 l-6 -36 309 -48 c315 -48 353 -53
353 -39 0 4 20 138 45 297 25 159 44 292 43 296 -2 4 -41 -45 -88 -108z"/>
<path d="M2155 1401 c-40 -25 -119 -107 -108 -114 4 -2 32 -12 61 -22 47 -15
61 -15 117 -4 70 14 169 4 320 -31 44 -10 82 -17 84 -14 2 2 -26 18 -64 35
-50 24 -89 34 -154 40 l-86 8 -57 60 c-31 34 -62 61 -70 61 -7 0 -26 -9 -43
-19z"/>
<path d="M2803 1332 c-7 -5 -18 -44 -24 -89 l-12 -80 -107 -7 c-125 -7 -241
-34 -311 -72 -52 -29 -59 -38 -34 -48 12 -4 15 -24 15 -94 0 -91 -8 -112 -42
-112 -21 0 -27 22 -30 115 l-3 70 -32 -62 c-18 -34 -33 -74 -33 -87 0 -14 -6
-29 -14 -33 -7 -4 -34 -48 -59 -98 -24 -49 -65 -120 -89 -156 l-44 -66 20
-186 20 -187 337 0 337 0 5 33 c3 17 24 205 47 417 24 227 47 397 55 415 15
30 45 227 45 289 0 22 -6 36 -16 40 -19 7 -16 7 -31 -2z"/>
<path d="M1922 1226 c-46 -53 -57 -115 -57 -336 0 -208 14 -314 45 -353 l18
-22 45 46 c33 35 71 100 145 252 69 139 113 217 138 243 48 48 140 90 245 113
91 19 91 21 -31 45 -133 26 -211 30 -253 12 -36 -15 -42 -14 -115 9 -109 35
-143 33 -180 -9z"/>
</g>
</svg>
