<?xml version="1.0" standalone="no"?>
<!DOCTYPE svg PUBLIC "-//W3C//DTD SVG 20010904//EN"
 "http://www.w3.org/TR/2001/REC-SVG-20010904/DTD/svg10.dtd">
<svg version="1.0" xmlns="http://www.w3.org/2000/svg"
 width="554.000000pt" height="554.000000pt" viewBox="0 0 554.000000 554.000000"
 preserveAspectRatio="xMidYMid meet">
<metadata>
Created by potrace 1.15, written by Peter Selinger 2001-2017
</metadata>
<g transform="translate(0.000000,554.000000) scale(0.100000,-0.100000)"
fill="#FFFFFF" stroke="none">
<path d="M554 4876 c-342 -107 -457 -522 -214 -775 109 -114 270 -169 416
-142 222 41 393 237 394 453 l0 46 40 6 c22 3 58 9 79 12 22 3 60 19 86 35 37
24 52 42 76 94 48 107 56 148 36 190 -23 48 -71 69 -146 61 -368 -37 -390 -39
-415 -23 -13 9 -51 25 -85 37 -70 23 -201 26 -267 6z"/>
<path d="M4435 4779 c-413 -46 -577 -572 -265 -852 97 -87 199 -127 326 -127
197 0 361 102 446 278 37 77 42 94 46 181 9 193 -58 331 -212 439 -97 68 -211
95 -341 81z"/>
<path d="M1960 4030 c-288 -3 -421 -9 -435 -17 -32 -18 -63 -55 -80 -96 -15
-37 -11 -158 24 -578 13 -154 47 -210 146 -238 47 -13 796 -15 862 -2 99 19
147 80 146 184 -2 133 -34 563 -45 607 -14 53 -67 115 -111 129 -53 16 -78 16
-507 11z"/>
<path d="M680 3815 c-230 -12 -251 -17 -301 -72 -57 -61 -54 -8 -60 -978 -7
-923 -13 -1095 -48 -1216 -10 -36 -73 -190 -140 -343 -68 -153 -125 -293 -128
-312 -8 -47 21 -119 61 -149 73 -56 191 -57 273 -2 46 31 54 44 175 287 70
140 141 293 158 340 25 68 122 442 155 598 4 17 10 32 13 32 7 0 209 -306 280
-424 64 -107 80 -172 113 -461 35 -313 33 -304 69 -353 58 -81 185 -115 275
-73 83 38 110 98 101 221 -14 179 -57 587 -67 640 -22 112 -53 202 -273 770
-49 128 -56 153 -56 217 l0 71 63 6 c34 3 184 10 334 14 259 8 274 10 319 33
74 38 105 120 70 187 -21 40 -66 78 -106 90 -19 6 -147 13 -284 16 l-250 5
-25 25 c-26 27 -22 3 -107 546 -28 175 -36 200 -81 241 -69 65 -101 68 -533
44z"/>
<path d="M3991 3667 c-32 -6 -134 -50 -245 -105 -255 -128 -241 -127 -541 -13
-245 93 -300 103 -352 65 -46 -34 -65 -80 -60 -150 5 -72 29 -126 77 -174 29
-29 76 -50 290 -130 l255 -94 100 0 c96 0 106 2 279 62 99 34 181 62 183 62 2
0 3 -534 3 -1187 0 -1127 1 -1190 19 -1228 22 -50 79 -101 129 -116 22 -6 75
-10 119 -8 97 5 147 33 190 106 l28 48 3 608 3 607 29 0 30 0 0 -591 c0 -414
3 -603 11 -630 29 -96 111 -149 232 -149 113 0 183 37 223 117 18 36 19 81 24
772 l5 733 60 19 c35 10 78 33 101 53 49 42 317 452 340 521 19 53 14 128 -10
176 -31 62 -380 541 -412 565 -18 14 -57 35 -86 47 -52 21 -65 22 -513 23
-290 1 -480 -2 -514 -9z m1103 -635 c77 -115 77 -137 -5 -255 -33 -48 -62 -87
-65 -87 -2 0 -4 100 -4 222 0 126 4 218 9 213 4 -6 34 -47 65 -93z"/>
</g>
</svg>
