<?xml version="1.0" standalone="no"?>
<!DOCTYPE svg PUBLIC "-//W3C//DTD SVG 20010904//EN"
 "http://www.w3.org/TR/2001/REC-SVG-20010904/DTD/svg10.dtd">
<svg version="1.0" xmlns="http://www.w3.org/2000/svg"
 width="434.000000pt" height="512.000000pt" viewBox="0 0 434.000000 512.000000"
 preserveAspectRatio="xMidYMid meet">
<metadata>
Created by potrace 1.15, written by Peter Selinger 2001-2017
</metadata>
<g transform="translate(0.000000,512.000000) scale(0.100000,-0.100000)"
fill="#FFFFFF" stroke="none">
<path d="M2009 5105 c-77 -19 -156 -58 -214 -106 -340 -281 -215 -817 215
-925 130 -33 302 -2 413 74 108 76 192 197 222 323 88 376 -261 725 -636 634z"/>
<path d="M1251 4195 c-155 -44 -277 -146 -421 -353 -226 -325 -324 -538 -421
-914 -34 -135 -42 -180 -42 -263 -2 -120 25 -220 76 -286 24 -32 687 -581
1089 -902 24 -19 52 -101 223 -642 108 -340 205 -635 215 -655 62 -120 228
-181 361 -131 73 28 142 97 170 170 37 98 32 120 -200 848 -115 364 -219 679
-230 700 -28 54 -62 84 -503 442 l-397 321 16 53 c45 155 166 427 281 633 l40
72 -164 187 c-135 155 -167 197 -179 238 -19 64 -19 81 1 146 31 106 151 183
258 167 78 -13 120 -42 222 -158 l99 -112 8 44 c19 104 -13 226 -78 298 -66
74 -143 105 -270 109 -68 2 -117 -2 -154 -12z"/>
<path d="M1310 3952 c-60 -33 -93 -84 -98 -151 -3 -41 1 -69 12 -92 20 -43
628 -738 666 -762 16 -10 229 -62 504 -122 406 -89 482 -104 516 -96 122 27
184 154 130 266 -39 81 -50 85 -524 189 -235 52 -429 96 -430 98 -33 45 -576
654 -594 666 -39 25 -139 28 -182 4z"/>
<path d="M3175 3848 c-85 -100 -104 -231 -51 -348 16 -36 32 -88 34 -116 5
-56 -19 -144 -44 -164 -21 -18 -18 -60 4 -60 26 0 69 82 80 155 12 74 2 142
-32 219 -44 98 -33 182 35 267 49 63 25 107 -26 47z"/>
<path d="M3426 3839 c-81 -96 -97 -226 -42 -344 17 -36 30 -84 33 -120 5 -54
2 -66 -30 -127 -29 -55 -33 -70 -23 -84 11 -15 14 -15 31 2 35 35 58 106 63
189 4 74 1 88 -28 160 -52 126 -43 201 35 294 26 31 30 61 9 68 -7 2 -28 -15
-48 -38z"/>
<path d="M3691 3845 c-43 -49 -67 -100 -81 -171 -13 -64 -17 -46 51 -231 30
-81 19 -148 -37 -235 -15 -22 -16 -29 -4 -42 12 -15 14 -15 31 -1 9 9 28 40
40 68 19 42 24 69 24 142 -1 77 -5 99 -28 150 -16 33 -30 78 -33 100 -7 49 16
116 55 165 39 49 42 56 35 74 -9 23 -18 20 -53 -19z"/>
<path d="M3106 2974 c9 -50 17 -60 56 -68 43 -8 58 -23 58 -57 0 -36 -28 -54
-94 -63 -35 -4 -53 -13 -68 -31 -11 -14 -40 -37 -66 -52 -67 -39 -136 -37
-354 11 l-177 40 -103 -21 c-150 -29 -242 -77 -344 -178 -55 -55 -92 -102
-117 -151 -39 -75 -117 -269 -117 -291 0 -12 48 -50 54 -42 1 2 20 49 41 104
66 176 118 266 195 338 125 118 249 162 460 162 125 -1 143 -3 240 -34 58 -18
114 -42 126 -52 19 -18 41 -19 388 -19 l367 0 -60 88 c-84 121 -173 221 -234
262 -52 35 -145 71 -220 85 l-38 7 7 -38z"/>
<path d="M2910 2515 l0 -35 380 0 380 0 0 35 0 35 -380 0 -380 0 0 -35z"/>
<path d="M2740 2418 c-96 -66 -157 -304 -176 -680 l-6 -138 36 0 c31 0 36 3
36 23 0 12 5 94 10 182 15 233 45 395 92 490 41 82 -31 75 734 75 l682 0 31
-26 c17 -14 45 -54 62 -90 27 -55 35 -64 53 -58 12 3 25 10 30 15 14 12 -18
87 -61 143 -71 92 -14 86 -799 86 l-691 0 -33 -22z"/>
<path d="M2760 2320 c-27 -27 -26 -65 2 -84 18 -13 56 -16 210 -16 135 0 188
-3 188 -11 0 -7 -20 -280 -45 -608 -59 -788 -85 -1177 -85 -1265 0 -94 -26
-148 -94 -193 -47 -32 -52 -33 -151 -33 -112 0 -135 -9 -135 -54 0 -44 28 -56
128 -56 73 0 94 3 107 18 10 9 47 37 84 62 43 29 76 62 95 93 28 45 30 55 38
210 4 89 15 258 23 376 8 118 15 220 15 228 0 11 58 13 333 11 l332 -3 6 -70
c4 -38 14 -203 24 -365 9 -162 21 -314 27 -337 13 -53 65 -115 126 -150 26
-15 57 -37 69 -50 20 -21 31 -23 117 -23 87 0 96 2 110 22 21 29 20 51 -2 71
-15 14 -40 17 -118 17 -93 0 -103 2 -146 29 -81 52 -90 73 -99 240 -12 209
-34 530 -79 1131 -22 289 -43 567 -46 618 l-7 92 192 0 c178 0 192 1 211 20
11 11 20 29 20 40 0 11 -9 29 -20 40 -20 20 -33 20 -715 20 -682 0 -695 0
-715 -20z m960 -132 c0 -18 18 -271 40 -561 22 -291 40 -538 40 -548 0 -18
-12 -19 -325 -19 l-325 0 0 33 c0 17 16 237 35 487 19 250 37 497 41 548 l7
92 243 0 244 0 0 -32z"/>
<path d="M745 1989 c57 -165 70 -258 70 -479 -1 -173 -4 -221 -23 -306 -47
-216 -140 -438 -279 -665 -64 -106 -66 -112 -71 -188 -4 -68 -1 -86 20 -132
35 -77 70 -113 140 -148 103 -52 227 -39 313 31 83 69 281 428 363 661 78 221
132 490 132 663 l0 80 -332 270 c-182 148 -337 272 -344 277 -8 5 -5 -17 11
-64z"/>
<path d="M8 293 c-4 -32 -4 -32 51 -39 55 -7 318 0 326 8 3 3 3 18 -1 34 l-6
29 -183 0 -183 0 -4 -32z"/>
</g>
</svg>
