<?xml version="1.0" standalone="no"?>
<!DOCTYPE svg PUBLIC "-//W3C//DTD SVG 20010904//EN"
 "http://www.w3.org/TR/2001/REC-SVG-20010904/DTD/svg10.dtd">
<svg version="1.0" xmlns="http://www.w3.org/2000/svg"
 width="512.000000pt" height="434.000000pt" viewBox="0 0 512.000000 434.000000"
 preserveAspectRatio="xMidYMid meet">
<metadata>
Created by potrace 1.15, written by Peter Selinger 2001-2017
</metadata>
<g transform="translate(0.000000,434.000000) scale(0.100000,-0.100000)"
fill="#FFFFFF" stroke="none">
<path d="M2781 4324 c-133 -28 -269 -113 -349 -216 -89 -116 -132 -241 -132
-385 0 -172 57 -311 179 -433 125 -125 261 -182 435 -181 193 1 358 78 475
222 156 194 184 449 74 672 -52 103 -171 221 -275 271 -132 63 -270 80 -407
50z"/>
<path d="M1765 3526 c-213 -50 -359 -161 -632 -486 -230 -273 -410 -599 -544
-986 -82 -236 -51 -439 87 -585 86 -89 229 -174 381 -225 132 -44 155 -41 592
80 210 59 384 106 386 104 2 -2 -83 -226 -188 -498 l-191 -495 0 -90 c-1 -77
3 -98 25 -145 110 -234 437 -267 585 -60 22 31 137 318 355 885 321 838 321
840 323 920 1 72 -2 87 -32 147 -38 77 -92 130 -171 167 -47 22 -69 26 -136
25 -70 -1 -131 -15 -494 -117 -228 -64 -416 -115 -418 -114 -4 5 159 244 230
338 47 62 54 76 43 89 -83 98 -265 333 -285 369 -21 38 -26 59 -25 121 0 89
29 156 90 210 64 56 116 73 205 68 129 -8 131 -10 467 -428 161 -201 299 -373
307 -383 12 -17 203 -63 1005 -242 63 -14 148 -36 188 -49 39 -12 72 -19 72
-14 0 4 -17 25 -38 46 -30 30 -127 77 -526 257 -269 120 -497 226 -506 235
-10 8 -91 96 -181 195 -89 99 -177 196 -195 215 -18 19 -94 103 -169 187 -146
162 -202 205 -316 243 -78 27 -216 34 -294 16z"/>
<path d="M1850 3175 c-108 -49 -161 -180 -117 -288 9 -19 116 -160 239 -313
122 -153 228 -285 234 -293 10 -12 33 -8 165 29 129 37 168 44 239 44 134 -1
242 -54 320 -158 61 -81 83 -152 83 -263 -1 -51 0 -93 2 -93 2 0 182 -40 401
-90 218 -49 408 -90 422 -90 76 0 162 55 193 124 24 53 24 139 0 191 -19 43
-68 91 -110 107 -14 5 -294 70 -621 144 -593 134 -595 135 -620 167 -273 346
-606 749 -635 767 -48 29 -146 37 -195 15z"/>
<path d="M3663 2640 c-84 -51 -95 -156 -23 -225 41 -39 123 -47 173 -16 86 53
89 166 7 235 -40 33 -109 36 -157 6z m106 -65 c49 -25 57 -90 16 -130 -49 -50
-135 -17 -135 51 0 77 54 113 119 79z"/>
<path d="M4107 2433 c-18 -17 -2 -35 50 -59 109 -48 143 -101 143 -224 0 -64
3 -82 16 -87 24 -9 35 10 41 74 7 79 -16 156 -62 210 -49 58 -164 111 -188 86z"/>
<path d="M4044 2316 c-9 -23 3 -46 23 -46 58 0 120 -82 110 -145 -6 -39 4 -58
29 -53 30 5 32 96 4 154 -32 65 -151 129 -166 90z"/>
<path d="M4730 2279 c-44 -9 -95 -64 -104 -112 -9 -51 22 -120 66 -147 70 -42
169 -16 202 54 55 116 -37 232 -164 205z m86 -93 c58 -49 20 -146 -57 -146
-43 0 -79 39 -79 85 0 74 80 110 136 61z"/>
<path d="M4454 2003 c-12 -2 -34 -17 -49 -33 -21 -22 -28 -39 -28 -70 0 -119
170 -145 204 -31 23 77 -45 150 -127 134z"/>
<path d="M4770 1748 c-75 -38 -102 -127 -60 -196 76 -124 262 -76 264 69 2
109 -107 177 -204 127z m115 -83 c35 -34 33 -78 -5 -117 -26 -25 -36 -29 -63
-24 -37 7 -77 47 -77 77 0 77 92 118 145 64z"/>
<path d="M4145 1728 c-32 -28 -38 -30 -51 -16 -14 14 -21 10 -63 -32 -53 -53
-118 -80 -192 -80 -26 0 -116 16 -200 35 -84 19 -153 34 -154 32 -1 -1 -10
-36 -19 -78 -9 -42 -34 -110 -56 -152 l-39 -77 542 0 541 0 -68 69 -69 70 26
31 c52 61 44 144 -19 200 -30 25 -43 30 -89 30 -47 0 -59 -4 -90 -32z m118
-50 c33 -17 46 -39 47 -76 0 -42 -40 -82 -82 -82 -38 0 -88 48 -88 85 0 32 50
85 80 85 12 0 31 -5 43 -12z"/>
<path d="M3253 1641 c-59 -37 -52 -120 11 -146 59 -25 116 13 116 75 0 67 -69
106 -127 71z"/>
<path d="M2783 1263 c-4 -10 -48 -127 -99 -261 l-93 -243 86 -354 87 -355 958
0 957 0 9 33 c5 17 62 249 127 515 l119 482 54 0 c48 0 58 4 89 35 32 32 35
40 30 73 -4 24 -17 47 -37 65 l-30 27 -1125 0 c-1063 0 -1126 -1 -1132 -17z"/>
<path d="M166 1033 c-3 -16 -37 -228 -76 -473 -38 -245 -72 -457 -75 -471 -6
-26 -4 -27 51 -34 31 -4 63 -9 69 -11 8 -4 16 20 24 73 7 43 14 90 17 106 l6
27 609 0 c335 0 609 -1 610 -2 0 -2 8 -47 17 -101 9 -54 19 -98 22 -99 3 -1
33 2 68 6 l63 7 -6 42 c-4 23 -39 247 -79 497 l-72 455 -621 3 -621 2 -6 -27z"/>
</g>
</svg>
